PathFileType	4	(X/Y/Z)	C:/Users/opensim2020/Desktop/walking_exp_matlab/subject01_walking08_straight_02.trc	
DataRate	CameraRate	NumFrames	NumMarkers	Units	OrigDataRate	OrigDataStartFrame	OrigNumFrames	
100.00	100.00	4	43	mm	100.00	1962	311	
Frame#	Time	LFHD			RFHD			LBHD			RBHD			C7			T10			CLAV			STRN			RBAK			LSHO			LUPA			LELB			LFRM			LWRA			LWRB			LFIN			RSHO			RUPA			RELB			RFRM			RWRA			RWRB			RFIN			LASI			RASI			LPSI			RPSI			LTHI			LKNE			LTIB			LANK			LHEE			LTOE			RTHI			RKNE			RTIB			RANK			RHEE			RTOE			*39			*40			*41			*42			
		X1	Y1	Z1	X2	Y2	Z2	X3	Y3	Z3	X4	Y4	Z4	X5	Y5	Z5	X6	Y6	Z6	X7	Y7	Z7	X8	Y8	Z8	X9	Y9	Z9	X10	Y10	Z10	X11	Y11	Z11	X12	Y12	Z12	X13	Y13	Z13	X14	Y14	Z14	X15	Y15	Z15	X16	Y16	Z16	X17	Y17	Z17	X18	Y18	Z18	X19	Y19	Z19	X20	Y20	Z20	X21	Y21	Z21	X22	Y22	Z22	X23	Y23	Z23	X24	Y24	Z24	X25	Y25	Z25	X26	Y26	Z26	X27	Y27	Z27	X28	Y28	Z28	X29	Y29	Z29	X30	Y30	Z30	X31	Y31	Z31	X32	Y32	Z32	X33	Y33	Z33	X34	Y34	Z34	X35	Y35	Z35	X36	Y36	Z36	X37	Y37	Z37	X38	Y38	Z38	X39	Y39	Z39	X40	Y40	Z40	X41	Y41	Z41	X42	Y42	Z42	X43	Y43	Z43	

156	1.550	1524.10107	292.47006	1667.59583	1412.57751	275.11658	1681.72083	1508.17468	401.72992	1608.89282	1388.94458	386.47739	1622.22815	1453.86353	420.89606	1427.01733	1424.95081	445.46967	1133.06750	1453.38257	276.19165	1363.82678	1449.81433	225.18784	1210.98206	1360.77710	466.13635	1234.91882	1615.18921	339.30295	1381.41455	1687.65601	370.17636	1191.36548	1676.70764	388.28143	1043.10083	1696.25781	359.13696	933.09814	1672.06482	290.51154	812.40845	1696.87561	346.30417	811.30969	1700.99243	304.93668	736.30438	1301.48022	335.08694	1395.39929	1186.56079	373.66855	1197.68506	1178.90149	362.21460	1071.46875	1151.31409	308.98788	961.40271	1178.47217	206.41818	865.54504	1136.04810	245.54735	856.82220	1141.33325	191.61458	790.65973	1519.49524	261.37473	932.76068	1302.99854	273.19943	930.08490	1476.23315	451.14667	942.83899	1331.57837	454.21716	946.84106	1580.77246	240.22218	612.54846	1563.97205	224.56007	479.33212	1577.69031	247.49046	289.84363	1527.89392	242.34489	70.11839	1471.90588	281.52536	38.97639	1535.47693	92.97240	39.83092	1245.17761	347.78268	594.38831	1260.79236	359.00534	433.07022	1258.93152	494.13602	317.47385	1299.37463	627.68225	159.54794	1350.29321	687.01862	159.83910	1304.73706	553.82349	39.92218	1436.12537	292.42209	1712.71008	-3101.90503	1973.16943	1023.53845	-3140.66431	2012.56079	1021.88629			 
157	1.560	1526.45593	284.88953	1667.92786	1414.93860	267.74771	1682.13611	1510.85339	394.25906	1609.33752	1391.50269	379.20020	1622.69556	1456.21814	413.58963	1427.39783	1427.25525	438.22568	1133.45618	1455.53125	268.82135	1364.35950	1451.99158	217.78636	1211.54309	1363.15723	458.76953	1235.28662	1617.40271	331.67929	1381.89063	1690.20178	361.55899	1191.81677	1679.37866	378.66809	1043.34729	1698.88721	348.42169	933.54254	1674.46704	278.56720	813.56323	1699.38708	334.35532	811.94952	1703.57312	292.04855	737.34802	1303.81506	327.85199	1395.94910	1188.47449	366.92969	1198.65735	1181.10669	356.72214	1072.23914	1153.30701	304.64282	961.54840	1180.44995	203.14499	864.58087	1137.88293	242.28534	856.51721	1143.45593	189.23982	789.42200	1521.78784	253.62752	933.39496	1305.40906	265.98450	930.58972	1478.39893	443.90829	943.46661	1333.73926	447.06866	946.98688	1582.78967	235.25206	612.44263	1565.73157	220.35617	479.02411	1578.93127	244.67862	289.49185	1528.00305	242.06633	70.07495	1472.09302	281.52325	39.04771	1535.12622	92.67634	39.09068	1246.37793	334.82098	593.79419	1261.24072	343.55771	432.89832	1260.31274	481.20682	320.46967	1301.18103	617.66724	165.23093	1353.20508	675.68030	168.05666	1306.03955	550.75281	40.68628	1438.47290	285.04294	1713.05725	-3101.94385	1973.11731	1023.41528	-3140.73145	2012.58643	1021.91382			 
158	1.570	1528.66504	277.34766	1668.18298	1417.12939	260.47623	1682.43530	1513.38367	386.84326	1609.68213	1393.96838	371.97473	1623.07397	1458.48267	406.18866	1427.78162	1429.47595	430.95898	1133.80005	1457.69189	261.46097	1364.81824	1454.10303	210.50514	1211.94409	1365.61401	451.51422	1235.65088	1619.46814	324.07950	1382.24402	1692.87329	352.82440	1192.28442	1682.00977	369.00055	1043.50415	1701.59094	337.63126	934.02716	1677.09326	266.43707	814.82172	1702.30127	322.22034	812.61243	1706.12183	278.91315	738.36963	1305.97095	320.56760	1396.41333	1190.33838	360.35641	1199.38574	1183.26367	351.21664	1072.89404	1155.25403	300.36353	961.69806	1182.29932	199.95912	863.59851	1139.41553	239.46144	855.89618	1145.54541	186.91612	788.09784	1524.16541	245.73210	934.04541	1307.77014	259.07736	931.01660	1480.55542	436.85324	943.95282	1335.86658	440.14377	946.80872	1584.76978	230.76588	612.13116	1567.51196	216.53400	478.64673	1579.99756	242.15379	289.10742	1528.06482	241.85507	69.95146	1472.19727	281.50537	39.08078	1534.77026	92.43130	38.47968	1247.44116	321.82300	593.15460	1261.71777	327.95200	432.86545	1261.66174	467.97513	323.78754	1303.10168	607.70898	171.40512	1355.86963	664.25885	176.53706	1308.18689	548.32880	42.75938	1440.82336	277.66010	1713.31873	-3101.82910	1973.12842	1023.29987	-3140.69263	2012.52917	1021.94104			 
159	1.580	1530.76501	269.81778	1668.40759	1419.25098	253.14516	1682.79114	1515.65491	379.35989	1609.92712	1396.24731	364.69272	1623.39478	1460.60510	398.82755	1428.23804	1431.77832	424.15823	1134.26123	1459.68091	254.18332	1365.13501	1456.10742	203.37027	1212.17578	1368.03052	444.36429	1236.01062	1621.44324	316.50912	1382.53345	1695.17529	344.23563	1192.55225	1684.64929	359.34998	1043.58044	1704.28015	326.67096	934.36224	1679.70447	254.15384	816.02252	1704.89111	309.67950	813.09467	1708.79089	265.69348	739.51807	1307.93237	313.36859	1396.75989	1192.28601	353.82062	1199.95337	1185.24915	345.62463	1073.43652	1157.18359	296.06073	961.73010	1184.25977	196.83414	862.38898	1141.45923	235.91975	855.26361	1147.44788	184.80103	786.54413	1526.09314	240.66612	933.85791	1310.11707	252.67761	931.13867	1482.68164	429.94824	944.30237	1337.95435	433.39511	946.31183	1586.62268	226.50595	611.85626	1569.22144	212.91431	478.22110	1580.97070	240.00006	288.82291	1528.15308	241.67128	69.88725	1472.30212	281.50357	39.16368	1534.66772	92.26057	38.06685	1248.39172	308.82465	592.69061	1262.47229	312.59521	433.13431	1262.99353	454.71405	327.22928	1305.28027	597.01672	177.59183	1358.56775	652.82648	184.95828	1309.75720	543.02570	46.54380	1442.95325	270.33069	1713.79895	-3101.97778	1973.10388	1023.36768	-3140.61938	2012.59973	1022.03235			 
